<svg width="24" height="24" viewBox="0 0 24 24" fill="none" xmlns="http://www.w3.org/2000/svg">
<path d="M9.29079 6.7542C9.10454 6.94156 9 7.19502 9 7.4592C9 7.72339 9.10454 7.97684 9.29079 8.1642L12.8308 11.7542L9.29079 15.2942C9.10454 15.4816 9 15.735 9 15.9992C9 16.2634 9.10454 16.5168 9.29079 16.7042C9.38376 16.7979 9.49436 16.8723 9.61622 16.9231C9.73807 16.9739 9.86878 17 10.0008 17C10.1328 17 10.2635 16.9739 10.3854 16.9231C10.5072 16.8723 10.6178 16.7979 10.7108 16.7042L14.9508 12.4642C15.0445 12.3712 15.1189 12.2606 15.1697 12.1388C15.2205 12.0169 15.2466 11.8862 15.2466 11.7542C15.2466 11.6222 15.2205 11.4915 15.1697 11.3696C15.1189 11.2478 15.0445 11.1372 14.9508 11.0442L10.7108 6.7542C10.6178 6.66047 10.5072 6.58608 10.3854 6.53531C10.2635 6.48454 10.1328 6.4584 10.0008 6.4584C9.86878 6.4584 9.73807 6.48454 9.61622 6.53531C9.49436 6.58608 9.38375 6.66047 9.29079 6.7542Z" fill="#666666"/>
</svg>
