<svg width="22" height="22" viewBox="0 0 22 22" fill="none" xmlns="http://www.w3.org/2000/svg">
<path d="M0 5.30435C0 2.37484 2.37484 0 5.30435 0H16.6957C19.6252 0 22 2.37484 22 5.30435V16.6957C22 19.6252 19.6252 22 16.6957 22H5.30435C2.37484 22 0 19.6252 0 16.6957V5.30435Z" fill="#368072"/>
<path d="M12.0869 11.56H13.7445L14.4075 8.90782H12.0869V7.58174C12.0869 6.8988 12.0869 6.25565 13.4129 6.25565H14.4075V4.02782C14.1914 3.99931 13.3752 3.935 12.5132 3.935C10.713 3.935 9.43469 5.03366 9.43469 7.0513V8.90782H7.44556V11.56H9.43469V17.1959H12.0869V11.56Z" fill="white"/>
</svg>
