<svg width="22" height="22" viewBox="0 0 22 22" fill="none" xmlns="http://www.w3.org/2000/svg">
<path d="M0 5.30435C0 2.37484 2.37484 0 5.30435 0H16.6957C19.6252 0 22 2.37484 22 5.30435V16.6957C22 19.6252 19.6252 22 16.6957 22H5.30435C2.37484 22 0 19.6252 0 16.6957V5.30435Z" fill="#368072"/>
<path d="M10.9574 8.5763C10.4298 8.5763 9.9239 8.78587 9.55086 9.1589C9.17783 9.53194 8.96826 10.0379 8.96826 10.5654C8.96826 11.093 9.17783 11.5989 9.55086 11.972C9.9239 12.345 10.4298 12.5546 10.9574 12.5546C11.4849 12.5546 11.9909 12.345 12.3639 11.972C12.737 11.5989 12.9465 11.093 12.9465 10.5654C12.9465 10.0379 12.737 9.53194 12.3639 9.1589C11.9909 8.78587 11.4849 8.5763 10.9574 8.5763ZM10.9574 7.25022C11.8366 7.25022 12.6799 7.5995 13.3016 8.22122C13.9233 8.84294 14.2726 9.68618 14.2726 10.5654C14.2726 11.4447 13.9233 12.2879 13.3016 12.9096C12.6799 13.5314 11.8366 13.8807 10.9574 13.8807C10.0781 13.8807 9.2349 13.5314 8.61318 12.9096C7.99146 12.2879 7.64217 11.4447 7.64217 10.5654C7.64217 9.68618 7.99146 8.84294 8.61318 8.22122C9.2349 7.5995 10.0781 7.25022 10.9574 7.25022ZM15.2672 7.08445C15.2672 7.30427 15.1799 7.51508 15.0244 7.67051C14.869 7.82594 14.6582 7.91326 14.4384 7.91326C14.2186 7.91326 14.0077 7.82594 13.8523 7.67051C13.6969 7.51508 13.6096 7.30427 13.6096 7.08445C13.6096 6.86464 13.6969 6.65383 13.8523 6.4984C14.0077 6.34297 14.2186 6.25565 14.4384 6.25565C14.6582 6.25565 14.869 6.34297 15.0244 6.4984C15.1799 6.65383 15.2672 6.86464 15.2672 7.08445ZM10.9574 5.26108C9.31702 5.26108 9.04915 5.26573 8.28599 5.29954C7.76616 5.32407 7.4174 5.39369 7.09384 5.51967C6.82306 5.61909 6.57826 5.77843 6.37775 5.98579C6.17022 6.18629 6.01066 6.43108 5.91097 6.70188C5.78499 7.02677 5.71537 7.37487 5.6915 7.89403C5.65702 8.62603 5.65238 8.88197 5.65238 10.5654C5.65238 12.2065 5.65702 12.4737 5.69084 13.2368C5.71537 13.756 5.78499 14.1054 5.9103 14.4283C6.02302 14.7167 6.15563 14.9243 6.37576 15.1444C6.59921 15.3672 6.80674 15.5005 7.09185 15.6105C7.41939 15.7372 7.76815 15.8075 8.28533 15.8313C9.01733 15.8658 9.27326 15.8698 10.9567 15.8698C12.5978 15.8698 12.865 15.8651 13.6281 15.8313C14.1466 15.8068 14.4954 15.7372 14.8196 15.6119C15.0902 15.512 15.3348 15.3527 15.5357 15.1457C15.7592 14.923 15.8924 14.7154 16.0025 14.4296C16.1285 14.1034 16.1988 13.7547 16.2226 13.2362C16.2571 12.5048 16.2611 12.2482 16.2611 10.5654C16.2611 8.92506 16.2564 8.65719 16.2226 7.89403C16.1981 7.37553 16.1278 7.02544 16.0025 6.70188C15.9025 6.43137 15.7433 6.18668 15.5364 5.98579C15.336 5.77816 15.0911 5.61858 14.8203 5.51901C14.4954 5.39303 14.1466 5.32341 13.6281 5.29954C12.8968 5.26506 12.6409 5.26108 10.9567 5.26108M10.9567 3.935C12.7582 3.935 12.983 3.94163 13.6905 3.97478C14.3959 4.00793 14.8773 4.11866 15.2997 4.2831C15.7373 4.45151 16.1059 4.6796 16.4746 5.04758C16.8117 5.37904 17.0726 5.77997 17.2391 6.2225C17.4028 6.64486 17.5142 7.12623 17.5474 7.83237C17.5785 8.53917 17.5872 8.76394 17.5872 10.5654C17.5872 12.3669 17.5805 12.5917 17.5474 13.2985C17.5142 14.0046 17.4028 14.4853 17.2391 14.9084C17.0731 15.3511 16.8121 15.7522 16.4746 16.0833C16.143 16.4203 15.7421 16.6812 15.2997 16.8478C14.8773 17.0115 14.3959 17.1229 13.6905 17.1561C12.983 17.1872 12.7582 17.1959 10.9567 17.1959C9.15524 17.1959 8.93047 17.1892 8.223 17.1561C7.51752 17.1229 7.03682 17.0115 6.61379 16.8478C6.1711 16.6817 5.77009 16.4207 5.43888 16.0833C5.10168 15.7519 4.84079 15.3509 4.67439 14.9084C4.50996 14.486 4.39923 14.0046 4.36608 13.2985C4.33425 12.5917 4.32629 12.3669 4.32629 10.5654C4.32629 8.76394 4.33292 8.53917 4.36608 7.83237C4.39923 7.12623 4.50996 6.64552 4.67439 6.2225C4.84031 5.7797 5.10126 5.37866 5.43888 5.04758C5.77018 4.71025 6.17116 4.44934 6.61379 4.2831C7.03615 4.11866 7.51686 4.00793 8.223 3.97478C8.93113 3.94362 9.1559 3.935 10.9574 3.935" fill="white"/>
</svg>
