<svg width="22" height="22" viewBox="0 0 22 22" fill="none" xmlns="http://www.w3.org/2000/svg">
<path d="M0 5.30435C0 2.37484 2.37484 0 5.30435 0H16.6957C19.6252 0 22 2.37484 22 5.30435V16.6957C22 19.6252 19.6252 22 16.6957 22H5.30435C2.37484 22 0 19.6252 0 16.6957V5.30435Z" fill="#368072"/>
<path d="M12.5051 9.6317L16.9482 4.46692H15.8952L12.0374 8.95132L8.95608 4.46692H5.4021L10.0616 11.2482L5.4021 16.6642H6.45507L10.5291 11.9285L13.7832 16.6642H17.3371L12.5048 9.6317H12.5051ZM11.063 11.3079L10.5908 10.6326L6.83442 5.25955H8.4517L11.483 9.59587L11.9551 10.2711L15.8957 15.9076H14.2786L11.063 11.3082V11.3079Z" fill="white"/>
</svg>
