<svg width="24" height="24" viewBox="0 0 24 24" fill="none" xmlns="http://www.w3.org/2000/svg">
<path d="M17.0307 14.85H17.3948L17.1363 14.5935L15.9667 13.4329C15.9667 13.4329 15.9666 13.4328 15.9666 13.4328C15.8253 13.2915 15.746 13.0998 15.746 12.9C15.746 12.7001 15.8254 12.5084 15.9667 12.3671C16.1081 12.2257 16.2998 12.1463 16.4997 12.1463C16.6995 12.1463 16.8912 12.2257 17.0326 12.3671L19.73 15.0644C19.7968 15.1385 19.8506 15.2234 19.8891 15.3154C19.9639 15.4979 19.9639 15.7025 19.8889 15.885L19.8888 15.885L19.887 15.8899C19.8532 15.9811 19.8005 16.064 19.7322 16.1333C19.7321 16.1334 19.732 16.1335 19.7319 16.1337L17.0326 18.8329L17.0322 18.8334C16.9624 18.9037 16.8795 18.9595 16.7881 18.9975C16.6967 19.0356 16.5987 19.0552 16.4997 19.0552C16.4006 19.0552 16.3026 19.0356 16.2112 18.9975L16.1535 19.136L16.2112 18.9975C16.1198 18.9595 16.0369 18.9037 15.9672 18.8334L15.9663 18.8325C15.896 18.7628 15.8402 18.6798 15.8021 18.5884C15.764 18.497 15.7444 18.399 15.7444 18.3C15.7444 18.201 15.764 18.103 15.8021 18.0116C15.8402 17.9202 15.896 17.8372 15.9663 17.7675L15.9663 17.7675L17.1363 16.6065L17.3948 16.35H17.0307H11.9997C11.8007 16.35 11.61 16.271 11.4693 16.1303C11.3287 15.9897 11.2497 15.7989 11.2497 15.6C11.2497 15.4011 11.3287 15.2103 11.4693 15.0697C11.61 14.929 11.8007 14.85 11.9997 14.85H17.0307ZM11.2497 4.8V4.65H11.0997H6.59966C6.32118 4.65 6.05411 4.76062 5.8572 4.95754C5.66028 5.15445 5.54966 5.42152 5.54966 5.7V18.3C5.54966 18.5785 5.66028 18.8455 5.8572 19.0425C6.05411 19.2394 6.32118 19.35 6.59966 19.35H13.7997C13.9986 19.35 14.1893 19.429 14.33 19.5697C14.4706 19.7103 14.5497 19.9011 14.5497 20.1C14.5497 20.2989 14.4706 20.4897 14.33 20.6303C14.1893 20.771 13.9986 20.85 13.7997 20.85H6.59966C5.92336 20.85 5.27475 20.5813 4.79654 20.1031C4.31832 19.6249 4.04966 18.9763 4.04966 18.3V5.7C4.04966 5.0237 4.31832 4.3751 4.79654 3.89688C5.27475 3.41866 5.92336 3.15 6.59966 3.15H12.0277L12.2552 3.23126L12.2797 3.24H12.3057H12.3518C12.4182 3.2743 12.4796 3.31761 12.5343 3.36875L17.9319 8.76636C17.932 8.76646 17.9321 8.76656 17.9322 8.76666C18.0361 8.87209 18.1065 9.0059 18.1345 9.15124C18.1625 9.29674 18.1468 9.44727 18.0894 9.58385L18.0889 9.585C18.0326 9.72197 17.9371 9.83921 17.8143 9.92196C17.6916 10.0046 17.5472 10.0492 17.3993 10.05H13.7997C13.1234 10.05 12.4748 9.78134 11.9965 9.30312C11.5183 8.8249 11.2497 8.1763 11.2497 7.5V4.8ZM13.0057 5.96293L12.7497 5.70687V6.069V7.5C12.7497 7.77848 12.8603 8.04555 13.0572 8.24246C13.2541 8.43937 13.5212 8.55 13.7997 8.55H15.2307H15.5928L15.3367 8.29393L13.0057 5.96293Z" fill="#666666" stroke="#666666" stroke-width="0.3"/>
</svg>
