<svg width="16" height="17" viewBox="0 0 16 17" fill="none" xmlns="http://www.w3.org/2000/svg">
<path d="M12.6667 3.16634H11.3334V2.49967C11.3334 2.32286 11.2631 2.15329 11.1381 2.02827C11.0131 1.90325 10.8435 1.83301 10.6667 1.83301C10.4899 1.83301 10.3203 1.90325 10.1953 2.02827C10.0703 2.15329 10 2.32286 10 2.49967V3.16634H6.00004V2.49967C6.00004 2.32286 5.9298 2.15329 5.80478 2.02827C5.67975 1.90325 5.51019 1.83301 5.33337 1.83301C5.15656 1.83301 4.98699 1.90325 4.86197 2.02827C4.73695 2.15329 4.66671 2.32286 4.66671 2.49967V3.16634H3.33337C2.80294 3.16634 2.29423 3.37705 1.91916 3.75213C1.54409 4.1272 1.33337 4.63591 1.33337 5.16634V13.1663C1.33337 13.6968 1.54409 14.2055 1.91916 14.5806C2.29423 14.9556 2.80294 15.1663 3.33337 15.1663H12.6667C13.1971 15.1663 13.7058 14.9556 14.0809 14.5806C14.456 14.2055 14.6667 13.6968 14.6667 13.1663V5.16634C14.6667 4.63591 14.456 4.1272 14.0809 3.75213C13.7058 3.37705 13.1971 3.16634 12.6667 3.16634ZM13.3334 13.1663C13.3334 13.3432 13.2631 13.5127 13.1381 13.6377C13.0131 13.7628 12.8435 13.833 12.6667 13.833H3.33337C3.15656 13.833 2.98699 13.7628 2.86197 13.6377C2.73695 13.5127 2.66671 13.3432 2.66671 13.1663V8.49967H13.3334V13.1663ZM13.3334 7.16634H2.66671V5.16634C2.66671 4.98953 2.73695 4.81996 2.86197 4.69494C2.98699 4.56991 3.15656 4.49967 3.33337 4.49967H4.66671V5.16634C4.66671 5.34315 4.73695 5.51272 4.86197 5.63775C4.98699 5.76277 5.15656 5.83301 5.33337 5.83301C5.51019 5.83301 5.67975 5.76277 5.80478 5.63775C5.9298 5.51272 6.00004 5.34315 6.00004 5.16634V4.49967H10V5.16634C10 5.34315 10.0703 5.51272 10.1953 5.63775C10.3203 5.76277 10.4899 5.83301 10.6667 5.83301C10.8435 5.83301 11.0131 5.76277 11.1381 5.63775C11.2631 5.51272 11.3334 5.34315 11.3334 5.16634V4.49967H12.6667C12.8435 4.49967 13.0131 4.56991 13.1381 4.69494C13.2631 4.81996 13.3334 4.98953 13.3334 5.16634V7.16634Z" fill="#666666"/>
</svg>
